<svg xmlns="http://www.w3.org/2000/svg" xmlns:xlink="http://www.w3.org/1999/xlink" viewBox="0 0 46 36.9"><defs><style>.cls-1{fill:none;}.cls-2{clip-path:url(#clip-path);}.cls-3{fill:#ff8c0f;}</style><clipPath id="clip-path"><path class="cls-1" d="M10.1,32.86a1.52,1.52,0,0,0,0,3h7.59a1.52,1.52,0,0,0,0-3Zm7.59-18.21v3a3,3,0,0,1-6.07,0V2a1,1,0,0,0-1-1H2A1,1,0,0,0,1,2V18a13.66,13.66,0,0,0,27.31-.31v-3a3,3,0,0,1,6.07,0v6.59a1,1,0,0,0,1,1H44a1,1,0,0,0,1-1v-6.9a13.66,13.66,0,0,0-27.31.31"/></clipPath></defs><title>管网</title><g id="图层_2" data-name="图层 2"><g id="图层_1-2" data-name="图层 1"><g class="cls-2"><rect class="cls-3" width="46" height="36.9"/></g></g></g></svg>