<svg xmlns="http://www.w3.org/2000/svg" xmlns:xlink="http://www.w3.org/1999/xlink" viewBox="0 0 46 46"><defs><style>.cls-1,.cls-4{fill:none;}.cls-2{clip-path:url(#clip-path);}.cls-3{fill:#040806;fill-rule:evenodd;}.cls-4{stroke:#979797;stroke-miterlimit:10;stroke-width:2px;}.cls-5{clip-path:url(#clip-path-2);}.cls-6{fill:#57c3ea;}.cls-7{clip-path:url(#clip-path-3);}</style><clipPath id="clip-path"><path class="cls-1" d="M2,23A21,21,0,1,0,23,2,21,21,0,0,0,2,23"/></clipPath><clipPath id="clip-path-2"><path class="cls-1" d="M3,23A20,20,0,1,1,23,43,20,20,0,0,1,3,23M1,23A22,22,0,1,0,23,1,22,22,0,0,0,1,23"/></clipPath><clipPath id="clip-path-3"><path class="cls-1" d="M22.79,10c-1.86,0-4,.81-1.62,2.25,1.22.75,2.2,1.86-5,3.79C5.5,18.91,15,28.12,15,28.12a30.8,30.8,0,0,1,5.08,7H35c-.44-7.63-22.06-14.25-13.38-17.32C28.1,15.53,23.7,13,23,12.65c-1.66-.73-2.35-1.93-.64-2.36.48.06.7,0,.73-.14S23,10,22.84,10h-.05"/></clipPath></defs><title>河流水系</title><g id="图层_2" data-name="图层 2"><g id="图层_1-2" data-name="图层 1"><g class="cls-2"><path class="cls-3" d="M23,44A21,21,0,1,0,2,23,21,21,0,0,0,23,44"/><circle class="cls-4" cx="23" cy="23" r="21"/></g><g class="cls-5"><rect class="cls-6" width="46" height="46"/></g><g class="cls-7"><rect class="cls-6" x="4.5" y="8.97" width="31.5" height="27.17"/></g></g></g></svg>