<svg xmlns="http://www.w3.org/2000/svg" xmlns:xlink="http://www.w3.org/1999/xlink" viewBox="0 0 46 46"><defs><style>.cls-1{fill:none;}.cls-2{clip-path:url(#clip-path);}.cls-3{fill:#010a07;}.cls-4{clip-path:url(#clip-path-2);}.cls-5{fill:#06dbc8;}.cls-6{clip-path:url(#clip-path-3);}.cls-7{fill:#05ead6;}</style><clipPath id="clip-path"><path class="cls-1" d="M2,23A21,21,0,1,0,23,2,21,21,0,0,0,2,23"/></clipPath><clipPath id="clip-path-2"><path class="cls-1" d="M20,19a3,3,0,1,1,3,3,3,3,0,0,1-3-3m-2,0a5,5,0,1,0,5-5,5,5,0,0,0-5,5m-5,5,5,5h4v5H13Zm11,5h4l5-5V34H24Zm1-19a2,2,0,0,0,2,2,2.09,2.09,0,0,0,.67-.11L33,16.47v4.7L27.17,27H24V24H22v3H18.83L13,21.17V16.46l5.33-4.58A1.85,1.85,0,0,0,19,12a2,2,0,1,0-2-2,2.1,2.1,0,0,0,0,.36l-6,5.19V36H35V16h0v-.45l-6-5.18A2.22,2.22,0,0,0,29,10a2,2,0,0,0-4,0"/></clipPath><clipPath id="clip-path-3"><path class="cls-1" d="M3,23A20,20,0,1,1,23,43,20,20,0,0,1,3,23M1,23A22,22,0,1,0,23,1,22,22,0,0,0,1,23"/></clipPath></defs><title>探漏点</title><g id="图层_2" data-name="图层 2"><g id="图层_1-2" data-name="图层 1"><g class="cls-2"><rect class="cls-3" x="1" y="1" width="44" height="44"/></g><g class="cls-4"><rect class="cls-5" x="10" y="7" width="26" height="30"/></g><g class="cls-6"><rect class="cls-7" width="46" height="46"/></g></g></g></svg>