<svg xmlns="http://www.w3.org/2000/svg" xmlns:xlink="http://www.w3.org/1999/xlink" viewBox="0 0 46 46"><defs><style>.cls-1{fill:none;}.cls-2{clip-path:url(#clip-path);}.cls-3{fill:#010a07;}.cls-4{clip-path:url(#clip-path-2);}.cls-5{fill:#cfa223;}.cls-6{clip-path:url(#clip-path-3);}</style><clipPath id="clip-path"><path class="cls-1" d="M2,23A21,21,0,1,0,23,2,21,21,0,0,0,2,23"/></clipPath><clipPath id="clip-path-2"><path class="cls-1" d="M3,23A20,20,0,1,1,23,43,20,20,0,0,1,3,23M1,23A22,22,0,1,0,23,1,22,22,0,0,0,1,23"/></clipPath><clipPath id="clip-path-3"><path class="cls-1" d="M16.5,28.51H22V27.13H16.5Zm0-4.13H22V23H16.5Zm0-4.13H22V18.88H16.5Zm9.62,6.82a2.91,2.91,0,0,1,.42.23,3.66,3.66,0,0,1,1.07,3c0,.64,0,1.41-.13,2.3H26.12ZM13.75,13.38h11V32.62h-11ZM12.37,12V32.62H11V34H35q.15-2.2-2.35-6.56a8.25,8.25,0,0,0-6.52-4.37V12Z"/></clipPath></defs><title>重点排水户</title><g id="图层_2" data-name="图层 2"><g id="图层_1-2" data-name="图层 1"><g class="cls-2"><rect class="cls-3" x="1" y="1" width="44" height="44"/></g><g class="cls-4"><rect class="cls-5" width="46" height="46"/></g><g class="cls-6"><rect class="cls-5" x="10" y="11" width="26.09" height="24"/></g></g></g></svg>