<svg xmlns="http://www.w3.org/2000/svg" xmlns:xlink="http://www.w3.org/1999/xlink" viewBox="0 0 46 46"><defs><style>.cls-1{fill:none;}.cls-2{clip-path:url(#clip-path);}.cls-3{fill:#010a07;}.cls-4{clip-path:url(#clip-path-2);}.cls-5{fill:#28fbf0;}.cls-6{clip-path:url(#clip-path-3);}</style><clipPath id="clip-path"><path class="cls-1" d="M2,23A21,21,0,1,0,23,2,21,21,0,0,0,2,23"/></clipPath><clipPath id="clip-path-2"><path class="cls-1" d="M3,23A20,20,0,1,1,23,43,20,20,0,0,1,3,23M1,23A22,22,0,1,0,23,1,22,22,0,0,0,1,23"/></clipPath><clipPath id="clip-path-3"><path class="cls-1" d="M24,31.1a.84.84,0,0,1,.75-.9,3.06,3.06,0,0,0,2.75-3.3.76.76,0,1,1,1.5,0c0,2.82-1.9,5.1-4.25,5.1a.84.84,0,0,1-.75-.9M21.85,12.33l-.15.11C15.93,16.82,13,20.71,13,24.2a10,10,0,0,0,20,0c0-3.41-2.78-7.18-8.26-11.42l-.43-.34a2.17,2.17,0,0,0-2.46-.11"/></clipPath></defs><title>用水单位</title><g id="图层_2" data-name="图层 2"><g id="图层_1-2" data-name="图层 1"><g class="cls-2"><rect class="cls-3" x="1" y="1" width="44" height="44"/></g><g class="cls-4"><rect class="cls-5" width="46" height="46"/></g><g class="cls-6"><rect class="cls-5" x="12" y="10.85" width="22" height="24.15"/></g></g></g></svg>