<svg xmlns="http://www.w3.org/2000/svg" xmlns:xlink="http://www.w3.org/1999/xlink" viewBox="0 0 46 46"><defs><style>.cls-1,.cls-4{fill:none;}.cls-2{clip-path:url(#clip-path);}.cls-3{fill:#040806;fill-rule:evenodd;}.cls-4{stroke:#979797;stroke-miterlimit:10;stroke-width:2px;}.cls-5{clip-path:url(#clip-path-2);}.cls-6{fill:#96b324;}.cls-7{clip-path:url(#clip-path-3);}</style><clipPath id="clip-path"><path class="cls-1" d="M2,23A21,21,0,1,0,23,2,21,21,0,0,0,2,23"/></clipPath><clipPath id="clip-path-2"><path class="cls-1" d="M3,23A20,20,0,1,1,23,43,20,20,0,0,1,3,23M1,23A22,22,0,1,0,23,1,22,22,0,0,0,1,23"/></clipPath><clipPath id="clip-path-3"><path class="cls-1" d="M16.76,23.17a13.4,13.4,0,0,0-6.14,3.67,1.54,1.54,0,0,0-.26,1.77c.44.66,1.61,0,2.33-.68a10.49,10.49,0,0,1,4.66-2.88,4.06,4.06,0,0,1,3.48.81L22.28,27c.57.44,1,.76,1.42,1.05a12.26,12.26,0,0,0,3,1.62c2.67.92,5.17.06,7.8-2.83a1.2,1.2,0,0,0,0-1.87c-.79-.57-1.88.58-2.24,1a6.87,6.87,0,0,1-2.63,2,3,3,0,0,1-2,0,9.42,9.42,0,0,1-2.2-1.23c-.37-.26-.77-.56-1.31-1l-1.46-1.12A7,7,0,0,0,18.29,23a7.39,7.39,0,0,0-1.53.17m0-8a13.4,13.4,0,0,0-6.14,3.67,1.54,1.54,0,0,0-.26,1.77c.44.66,1.61,0,2.33-.68a10.49,10.49,0,0,1,4.66-2.88,4.06,4.06,0,0,1,3.48.81L22.28,19c.57.44,1,.76,1.42,1.05a12.26,12.26,0,0,0,3,1.62c2.67.92,5.17.06,7.8-2.83a1.2,1.2,0,0,0,0-1.87c-.79-.57-1.88.58-2.24,1a6.87,6.87,0,0,1-2.63,2,3,3,0,0,1-2,0,9.42,9.42,0,0,1-2.2-1.23c-.37-.26-.77-.56-1.31-1l-1.46-1.12A7,7,0,0,0,18.29,15a7.39,7.39,0,0,0-1.53.17"/></clipPath></defs><title>再生水厂</title><g id="图层_2" data-name="图层 2"><g id="图层_1-2" data-name="图层 1"><g class="cls-2"><path class="cls-3" d="M23,44A21,21,0,1,0,2,23,21,21,0,0,0,23,44"/><circle class="cls-4" cx="23" cy="23" r="21"/></g><g class="cls-5"><rect class="cls-6" width="46" height="46"/></g><g class="cls-7"><rect class="cls-6" x="8.92" y="13.71" width="27.35" height="17.85"/></g></g></g></svg>